<svg id="SvgjsSvg1030" width="288" height="288" xmlns="http://www.w3.org/2000/svg" version="1.1" xmlns:xlink="http://www.w3.org/1999/xlink" xmlns:svgjs="http://svgjs.com/svgjs"><defs id="SvgjsDefs1031"></defs><g id="SvgjsG1032" transform="matrix(1,0,0,1,0,0)"><svg xmlns="http://www.w3.org/2000/svg" viewBox="0 0 256.001 256.001" width="288" height="288"><rect width="256" height="256" fill="none"></rect><path d="M232,96.00049a16.01833,16.01833,0,0,0-16-16H184v-32a16.01833,16.01833,0,0,0-16-16H40a16.01833,16.01833,0,0,0-16,16v128a7.99978,7.99978,0,0,0,13.0293,6.22119L72,153.95032l.001,30.05017a16.01833,16.01833,0,0,0,16,16h93.58789l37.38281,30.22119a7.99979,7.99979,0,0,0,13.0293-6.22119ZM189.44727,185.7793a7.99922,7.99922,0,0,0-5.0293-1.77881H88.001l-.001-32h80a16.01833,16.01833,0,0,0,16-16v-40h32l.001,111.24512Z" fill="#c3d1dc" class="color000 svgShape"></path></svg></g></svg>