<svg xmlns="http://www.w3.org/2000/svg" enable-background="new 0 0 50 50" viewBox="0 0 50 50"><path d="M18.82012 24.33997c5.57007 0 10.3501-7.1499 10.3501-13.01001C29.17022 5.64001 24.52007 1 18.82012 1 13.11016 1 8.46026 5.64001 8.46026 11.32996 8.46026 17.19006 13.24029 24.33997 18.82012 24.33997zM24.69024 34.93005c0-2.64001.78003-5.09009 2.12988-7.15002-1.72998-.70007-3.59009-1.05994-5.48999-1.05994h-5.56982c-8.01025 0-14.49023 6.23999-14.76025 14.23999V48c0 .54993.4502 1 1 1h33.09009c.56006 0 1-.45007 1-1v-.05994C29.66021 47.07996 24.69024 41.56995 24.69024 34.93005z"/><path d="M37.85015,23.79993c-6.1499,0-11.15991,5-11.15991,11.13013c0,6.13989,5.01001,11.12988,11.15991,11.12988
		s11.1499-4.98999,11.1499-11.12988C49.00005,28.79993,44.00005,23.79993,37.85015,23.79993z M43.10162,32.44006L36.39068,39.151
		c-0.19531,0.19531-0.45117,0.29297-0.70703,0.29297s-0.51172-0.09766-0.70703-0.29297l-2.38281-2.38281
		c-0.39063-0.39063-0.39063-1.02344,0-1.41406s1.02344-0.39063,1.41406,0l1.67578,1.67578l6.00391-6.00391
		c0.39063-0.39063,1.02344-0.39063,1.41406,0S43.49224,32.04944,43.10162,32.44006z"/></svg>